<?xml version="1.0" encoding="utf-8"?>
<!-- Generator: Adobe Illustrator 16.0.3, SVG Export Plug-In . SVG Version: 6.00 Build 0)  -->
<!DOCTYPE svg PUBLIC "-//W3C//DTD SVG 1.1//EN" "http://www.w3.org/Graphics/SVG/1.1/DTD/svg11.dtd">
<svg version="1.1" id="Capa_1" xmlns="http://www.w3.org/2000/svg" xmlns:xlink="http://www.w3.org/1999/xlink" x="0px" y="0px"
	 width="300px" height="467.834px" viewBox="320 -83.167 300 467.834" enable-background="new 320 -83.167 300 467.834"
	 xml:space="preserve">
<g id="XMLID_1_">
	<g id="XMLID_4_">
		<g id="XMLID_6_">
			<linearGradient id="XMLID_7_" gradientUnits="userSpaceOnUse" x1="358.6016" y1="162.2666" x2="581.3984" y2="162.2666">
				<stop  offset="0" style="stop-color:#141414"/>
				<stop  offset="1" style="stop-color:#000000"/>
			</linearGradient>
			<path id="XMLID_23_" fill="url(#XMLID_7_)" stroke="#424242" stroke-width="6" stroke-miterlimit="10" d="M470,291.228
				c-7.227-1.495-34.445-8.723-59.755-36.238c-17.404-18.925-30.628-43.683-39.304-73.591
				c-10.487-36.163-14.313-79.891-11.389-130.093c15.176-5.869,53.439-18.001,110.446-18.001c56.983,0,95.241,12.121,110.448,18.004
				c2.924,50.201-0.9,93.927-11.391,130.09c-8.674,29.908-21.896,54.666-39.303,73.591C504.447,282.505,477.227,289.733,470,291.228
				z"/>
			<g>
				<path fill="#232323" d="M380.627,48.725l-17.939,49.109c0.726,32.146,5.781,59.462,12.826,84.632l52.139-142.727
					C408.137,42.103,392.337,45.263,380.627,48.725z"/>
				<path fill="#232323" d="M470.1,37.236c-10.101,0-19.588,0.407-28.441,1.106l-60.982,165.057
					c6.815,18.147,15.522,33.987,26.016,47.325l78.76-213.17C480.502,37.348,475.385,37.236,470.1,37.236z"/>
				<path fill="#232323" d="M500.691,38.519l-82.99,224.623c12.316,12.283,24.712,19.771,34.533,24.275l89.671-242.704
					C530.372,42.164,516.582,39.874,500.691,38.519z"/>
				<path fill="#232323" d="M576.482,54.201c-4.225-1.683-9.998-3.403-17.812-5.679l-90.286,244.655
					c0.656,0.16,1.232,0.291,1.713,0.396c6.549-1.396,30.103-7.811,53.172-31.209l52.529-142.174
					C577.339,100.146,577.744,76.471,576.482,54.201z"/>
			</g>
			<g>
				
					<linearGradient id="SVGID_1_" gradientUnits="userSpaceOnUse" x1="406.2139" y1="47.105" x2="552.4336" y2="47.105" gradientTransform="matrix(1 0 0 -1 0 385.667)">
					<stop  offset="0" style="stop-color:#141414"/>
					<stop  offset="1" style="stop-color:#000000"/>
				</linearGradient>
				<path fill="url(#SVGID_1_)" d="M472.688,364.667c0,0,43.8-5.297,79.746-52.211l-146.22,15.237
					C438.826,360.574,472.688,364.667,472.688,364.667z"/>
			</g>
		</g>
	</g>
</g>
<path fill="#FFFFFF" d="M379.27,166.863c0,0-14.445-84.622-9.367-108.208c0,0,23.396-9.135,39.01-9.743l-35.344,12.746
	C373.568,61.658,376.491,157.852,379.27,166.863z"/>
</svg>
