<?xml version="1.0" encoding="utf-8"?>
<!-- Generator: Adobe Illustrator 16.0.3, SVG Export Plug-In . SVG Version: 6.00 Build 0)  -->
<!DOCTYPE svg PUBLIC "-//W3C//DTD SVG 1.1//EN" "http://www.w3.org/Graphics/SVG/1.1/DTD/svg11.dtd">
<svg version="1.1" id="Capa_1" xmlns="http://www.w3.org/2000/svg" xmlns:xlink="http://www.w3.org/1999/xlink" x="0px" y="0px"
	 width="716px" height="739.467px" viewBox="2824.941 397.666 716 739.467" enable-background="new 2824.941 397.666 716 739.467"
	 xml:space="preserve">
<g id="XMLID_19_">
	<g id="XMLID_25_">
		<g id="XMLID_27_">
			<g id="XMLID_28_">
				<g id="XMLID_29_">
					<g id="XMLID_30_">
						<path id="XMLID_42_" fill="#90FF00" d="M2897.292,639.11C2977.139,482.904,3168.496,421,3324.7,500.846
							c156.208,79.848,218.109,271.207,138.264,427.41c-79.845,156.211-271.202,218.109-427.409,138.266
							C2879.349,986.673,2817.447,795.318,2897.292,639.11L2897.292,639.11z"/>
						<path id="XMLID_41_" fill="#FFFFFF" d="M3002.794,529.76c0,0,58.985-32.828,156.077-36.585
							c97.1-3.758,122.315,14.669,122.315,14.669l-9.532-34.474c0,0-95.197-21.636-154.307-9.287
							C3058.239,476.433,2988.545,520.365,3002.794,529.76z"/>
						<path id="XMLID_39_" fill="#5EB423" d="M3386.141,541.832c-1.146,23.588-13.976,92.124-104.137,241.511
							c-101.263,167.773-338.028,124.738-399.929,110.115c20.355,55.313,56.043,105.104,104.828,142.395
							c32.842,17.328,70.813,36.523,109.376,54.264c142.149,39.057,296.949-25.428,366.685-161.859
							C3531.318,794.537,3495.781,635.063,3386.141,541.832z"/>
						<path id="XMLID_38_" fill="#FBFDD9" d="M2920.417,589.723l78.171,227.886c0,0,92.152,123.115,212.046,80.434
							c119.894-42.684,131.757-164.584,131.757-164.584l-7.587-74.285l-72.528-190.313l62.716,32.135
							c0,0,89.807,204.245,47.734,298.708c-42.071,94.459-168.974,176.623-245.848,150.785
							c-76.875-25.834-138.168-70.992-175.2-143.395c-37.038-72.4-57.324-162.089-57.324-162.089L2920.417,589.723L2920.417,589.723
							z"/>
						<path id="XMLID_37_" fill="#DBDD8D" d="M3337.296,683.593l5.096,49.865c0,0-11.863,121.898-131.758,164.582
							c-35.912,12.787-69.332,10.688-98.536,1.488c-23.74,5.314-47.677,8.127-70.813,9.232
							c25.554,17.471,54.279,31.199,85.595,41.725c76.874,25.838,203.775-56.326,245.848-150.785
							c20.522-46.084,9.659-118.287-6.849-180.165C3358.925,637.518,3349.648,658.737,3337.296,683.593z"/>
						<path id="XMLID_36_" fill="#E8EB98" d="M3337.25,683.128l-2.445-23.956l-69.153-181.461
							c20.034,5.62,39.81,13.298,59.05,23.133c0.102,0.053,0.195,0.105,0.293,0.156c0.114,0.26,89.778,204.297,47.732,298.7
							c-2.405,5.4-5.104,10.762-8.04,16.066C3362.706,770.234,3353.379,725.425,3337.25,683.128L3337.25,683.128z"/>
						<path id="XMLID_31_" fill="#92CF49" d="M3493.241,677.776c58.49,172.922-34.285,360.534-207.206,419.02
							c-172.922,58.49-360.534-34.285-419.021-207.205c-58.489-172.922,34.283-360.534,207.207-419.023
							C3247.143,412.079,3434.754,504.853,3493.241,677.776L3493.241,677.776z M3339.197,518.047l44.336,131.089
							c41.58,122.924-24.886,257.333-147.81,298.911c-122.926,41.578-257.332-24.889-298.911-147.811l-44.339-131.091
							c-26.296,65.949-30.186,141.222-5.654,213.748c54.792,161.988,230.528,248.895,392.519,194.1
							c161.991-54.791,248.893-230.525,194.101-392.518C3448.907,611.95,3400.121,554.493,3339.197,518.047L3339.197,518.047z
							 M2905.151,641.377l51.467,152.16c37.88,111.994,160.412,172.588,272.408,134.703
							c111.993-37.879,172.586-160.41,134.704-272.405l-51.467-152.158c-8.398-3.965-16.979-7.548-25.707-10.749l57.366,169.605
							c34.187,101.062-20.534,211.72-121.599,245.902l0,0c-101.063,34.186-211.72-20.535-245.902-121.6l-57.368-169.605
							C2914.061,625.073,2909.418,633.127,2905.151,641.377L2905.151,641.377z M2933.906,595.889l62.319,184.25
							c30.485,90.131,129.269,138.979,219.398,108.492c90.133-30.484,138.98-129.268,108.495-219.396l-62.323-184.251
							c-57.489-15.782-120.148-15.149-180.878,5.392C3020.193,510.913,2970.014,548.447,2933.906,595.889L2933.906,595.889z"/>
					</g>
				</g>
			</g>
		</g>
		
			<linearGradient id="XMLID_17_" gradientUnits="userSpaceOnUse" x1="2992.7776" y1="616.6895" x2="3160.8616" y2="616.6895" gradientTransform="matrix(1 0 0 -1 -8.3599 1386.1904)">
			<stop  offset="0" style="stop-color:#B0D923"/>
			<stop  offset="1" style="stop-color:#A8D617"/>
		</linearGradient>
		<path id="XMLID_26_" fill="#FFFFFF" stroke="url(#XMLID_17_)" stroke-miterlimit="10" d="M2986.089,654.597
			c0,0,56.389,123.579,81.496,164.063c25.105,40.479,62.683,62.525,80.199,66.182c0,0-41.369,0.229-70.182-34.287
			C3048.792,816.037,2974.748,668.4,2986.089,654.597z"/>
	</g>
</g>
<linearGradient id="SVGID_1_" gradientUnits="userSpaceOnUse" x1="3308.9465" y1="732.7573" x2="3500.1213" y2="732.7573" gradientTransform="matrix(1 0 0 -1 -8.3599 1386.1904)">
	<stop  offset="0" style="stop-color:#F9F9F9"/>
	<stop  offset="1" style="stop-color:#E5E5E5"/>
</linearGradient>
<path fill="url(#SVGID_1_)" d="M3428.045,423.121c0,0,93.741,264.646-127.458,460.625
	C3300.587,883.746,3625.631,710.046,3428.045,423.121z"/>
<linearGradient id="SVGID_2_" gradientUnits="userSpaceOnUse" x1="3339.05" y1="734.2095" x2="3439.8459" y2="734.2095" gradientTransform="matrix(1 0 0 -1 -8.3599 1386.1904)">
	<stop  offset="0" style="stop-color:#F9F9F9"/>
	<stop  offset="1" style="stop-color:#E5E5E5"/>
</linearGradient>
<path fill="url(#SVGID_2_)" d="M3422.687,524.812c0,0-10.221,195.86-91.996,254.338
	C3330.691,779.15,3466.802,701.021,3422.687,524.812z"/>
<linearGradient id="SVGID_3_" gradientUnits="userSpaceOnUse" x1="3284.4875" y1="709.2661" x2="3365.6614" y2="709.2661" gradientTransform="matrix(1 0 0 -1 -8.3599 1386.1904)">
	<stop  offset="0" style="stop-color:#F9F9F9"/>
	<stop  offset="1" style="stop-color:#E5E5E5"/>
</linearGradient>
<path fill="url(#SVGID_3_)" d="M3357.302,621.162c0,0-32.814,94.491-81.175,111.525
	C3276.127,732.688,3353.892,713.742,3357.302,621.162z"/>
<linearGradient id="SVGID_4_" gradientUnits="userSpaceOnUse" x1="3365.9856" y1="784.5698" x2="3401.3118" y2="784.5698" gradientTransform="matrix(1 0 0 -1 -8.3599 1386.1904)">
	<stop  offset="0" style="stop-color:#F9F9F9"/>
	<stop  offset="1" style="stop-color:#E5E5E5"/>
</linearGradient>
<path fill="url(#SVGID_4_)" d="M3380.263,533.585c0,0,12.975,99.181-22.637,136.069
	C3357.627,669.656,3418.674,617.889,3380.263,533.585z"/>
</svg>
