<?xml version="1.0" encoding="utf-8"?>
<!-- Generator: Adobe Illustrator 16.0.3, SVG Export Plug-In . SVG Version: 6.00 Build 0)  -->
<!DOCTYPE svg PUBLIC "-//W3C//DTD SVG 1.1//EN" "http://www.w3.org/Graphics/SVG/1.1/DTD/svg11.dtd">
<svg version="1.1" id="Capa_1" xmlns="http://www.w3.org/2000/svg" xmlns:xlink="http://www.w3.org/1999/xlink" x="0px" y="0px"
	 width="860px" height="452px" viewBox="3996.941 869.568 860 452" enable-background="new 3996.941 869.568 860 452"
	 xml:space="preserve">
<polygon points="4051.265,1057.099 4832.226,970.314 4821.811,1093.228 4051.265,1172.81 "/>
<g>
	<path fill="#FFFFFF" d="M4158.406,1120.46l-57.832,5.818c0.865-2.76,2.389-6.24,4.566-10.451l11.539-1.16
		c0.801-0.322,8.182-5.574,22.143-15.756l-0.042-0.412l-27.197,2.734l4.73-10.883l39.563-3.979l26.53-19.734l-0.043-0.412
		l-77.267,7.773l-25.622,57.904l78.748-11.029C4158.282,1120.74,4158.349,1120.595,4158.406,1120.46z"/>
	<path fill="#FFFFFF" d="M4159.317,1120.578l0.206-0.02c-0.021,0.049-0.043,0.096-0.063,0.145l18.847-2.641l0.306-0.674
		c1.868-6.568,6.841-10.262,14.911-11.076l8.241-0.826c5.219-0.525,7.968,0.588,8.244,3.334l0.124,1.234
		c-0.108,0.564-0.555,1.816-1.324,3.734l19.547-2.74c2.68-6.318,3.991-9.828,3.925-10.508l-0.083-0.824
		c-0.177-1.75-2.163-2.867-5.958-3.354l-0.021-0.207c5.494-0.553,9.128-2.375,10.899-5.467l13.313-31.102l-0.454-0.371
		l-18.544,1.865l-7.449,16.982c-2.522,8.025-6.052,12.264-10.583,12.721l-17.928,1.803c-2.025,0.205-3.393-0.281-4.102-1.459
		l-0.123-1.238l0.1-1.051l10.414-24.773l-18.75,1.889c-0.593,0.648-2.028,3.637-4.301,8.965
		c-6.494,14.078-9.684,21.684-9.567,22.814c1.223,2.516,3.277,3.625,6.162,3.336l0.042,0.412l-0.414,0.041
		c-4.36,0.439-7.786,2.238-10.276,5.404c-0.6,1.025-2.688,5.545-6.25,13.531l0.684-0.068L4159.317,1120.578z"/>
	<path fill="#FFFFFF" d="M4159.46,1120.703c0.021-0.049,0.042-0.096,0.063-0.145l-0.206,0.02l-0.228-0.186l-0.684,0.068
		c-0.059,0.135-0.125,0.277-0.184,0.414L4159.46,1120.703z"/>
	<path fill="#FFFFFF" d="M4303.542,1096.705c3.964-4.734,6.97-10.031,9.016-15.896c4.601-9.443,6.739-15.764,6.419-18.957
		c-0.116-1.166-0.346-2.049-0.683-2.639c-2.515-4.326-7.141-6.15-13.87-5.473l-46.566,4.686
		c-2.584,5.324-10.419,22.596-23.492,51.783l63.792-8.938C4299.992,1099.953,4301.79,1098.447,4303.542,1096.705z M4280.873,1090.66
		l-20.193,2.031l7.779-17.85l18.75-1.887c5.356-0.539,8.161,0.428,8.409,2.902c0.068,0.688-0.405,2.189-1.419,4.512
		C4292.251,1086.531,4287.808,1089.962,4280.873,1090.66z"/>
	<path fill="#FFFFFF" d="M4331.74,1093.035l11.538-1.162c0.801-0.32,8.18-5.572,22.143-15.754l-0.041-0.412l-27.199,2.736
		l4.733-10.883l39.56-3.979l26.321-19.582c0.07-0.145,0.132-0.27,0.185-0.377l-0.02-0.188l-77.266,7.771l-21.402,48.367
		l19.579-2.742C4330.436,1095.63,4331.042,1094.382,4331.74,1093.035z"/>
	<path fill="#FFFFFF" d="M4408.795,1044c-1.737,3.613-8.345,18.457-19.833,44.555l67.103-9.396c3.146-2.621,6.02-7.305,8.617-14.064
		c4.469-9.363,6.553-15.539,6.254-18.527c-0.118-1.166-0.346-2.049-0.683-2.639c-2.516-4.324-7.07-6.154-13.664-5.49l-47.392,4.766
		c-0.046,0.08-0.123,0.229-0.219,0.422l0.022,0.223L4408.795,1044z M4412.618,1077.199l8.188-17.891l19.576-1.971
		c4.394-0.441,6.69,0.299,6.883,2.221c0.147,1.48-0.4,3.613-1.644,6.41c-1.559,5.568-5.959,8.717-13.205,9.447l-19.779,1.988
		L4412.618,1077.199z"/>
	<path fill="#FFFFFF" d="M4409.002,1043.845l-0.022-0.223c-0.053,0.105-0.113,0.232-0.185,0.377L4409.002,1043.845z"/>
	<path fill="#FFFFFF" d="M4502.464,1034.652l-0.455-0.369l-18.954,1.906c-7.459,16.896-13.575,30.813-18.354,41.754l19.821-2.773
		L4502.464,1034.652z"/>
	<path fill="#FFFFFF" d="M4543.134,1058.242l-0.043-0.412l-27.196,2.734l4.731-10.881l39.562-3.98l26.528-19.734l-0.041-0.412
		l-77.268,7.773l-18.096,40.887l36.89-5.168C4531.828,1066.458,4536.797,1062.863,4543.134,1058.242z"/>
	<path fill="#FFFFFF" d="M4597.924,1041.699l22.459-2.26c2.609-0.262,4.007,0.5,4.188,2.285l0.063,0.615
		c0.117,1.17-0.104,2.441-0.658,3.816l-4.45,10.1l19.75-2.768c0.925-2.141,1.874-4.346,2.874-6.664
		c4.508-8.984,6.599-15.096,6.272-18.322l-0.04-0.412c-0.122-1.201-0.508-2.27-1.155-3.215c-2.522-3.354-7.305-4.676-14.345-3.967
		l-45.948,4.621l-16.152,35.967c-0.262,0.582-0.505,1.125-0.76,1.697l19.634-2.752
		C4592.125,1054.855,4594.879,1048.615,4597.924,1041.699z"/>
	<path fill="#FFFFFF" d="M4680.292,1033.414l30.703-3.088l24.231-18.029l0.779-1.762l1.493-0.148l-0.021-0.209l-56.662,5.701
		c-11.06,1.113-20.066,6.736-27.025,16.871l-9.16,19.99l19.702-2.76C4668.733,1039.564,4674.052,1034.042,4680.292,1033.414z"/>
	<polygon fill="#FFFFFF" points="4786.785,1022.91 4813.313,1003.173 4813.273,1002.761 4737.5,1010.384 4737.521,1010.589 
		4735.227,1012.294 4722.131,1041.884 4769.709,1035.22 4769.69,1035.037 4742.491,1037.771 4747.227,1026.888 	"/>
	<polygon fill="#FFFFFF" points="4735.227,1012.294 4737.521,1010.589 4737.5,1010.384 4736.006,1010.535 	"/>
	<path fill="#FFFFFF" d="M4066.271,1149.425l0.226,0.186l77.317-7.779l-0.228-0.182l-0.205,0.02
		c2.979-6.785,5.48-12.443,7.518-17.014l-78.748,11.031l-6.088,13.76L4066.271,1149.425z"/>
	<path fill="#FFFFFF" d="M4144.174,1141.796l18.596-1.871l8.211-18.084l-18.845,2.643
		C4147.552,1134.986,4144.898,1140.757,4144.174,1141.796z"/>
	<path fill="#FFFFFF" d="M4193.223,1136.447l0.021,0.209l18.75-1.889c0.487-0.326,1.522-2.441,3.107-6.35
		c2.428-5.453,4.401-9.975,5.933-13.586l-19.546,2.738C4199.985,1121.302,4197.236,1127.583,4193.223,1136.447z"/>
	<path fill="#FFFFFF" d="M4150.899,1124.656c-2.037,4.57-4.539,10.229-7.518,17.014l0.205-0.021l0.228,0.184l0.36-0.035
		c0.725-1.037,3.378-6.813,7.963-17.313L4150.899,1124.656z"/>
	<path fill="#FFFFFF" d="M4218.041,1134.367l18.956-1.908l8.562-18.342l29.877-3.004c5.426-0.549,10.558-2.58,15.397-6.059
		l-63.792,8.938c-2.774,6.188-5.777,12.902-9.021,20.17L4218.041,1134.367z"/>
	<path fill="#FFFFFF" d="M4292.866,1126.632l0.227,0.182l77.319-7.775l-0.228-0.186l-0.206,0.021
		c2.727-6.215,5.271-12.01,7.649-17.42l-57.779,5.813c0.588-1.873,1.504-4.109,2.7-6.652l-19.581,2.74l-10.307,23.299
		L4292.866,1126.632z"/>
	<path fill="#FFFFFF" d="M4377.629,1101.455l0.735-0.074l0.229,0.186l0.205-0.02c-4.625,10.594-7.297,16.412-8.027,17.457
		l18.187-1.832c0.338-0.066,3.063-6.098,8.17-18.094l29.257-2.943l-7.592,17.623l0.04,0.412l19.163-1.93
		c0.207-0.02,1.179-2.063,2.922-6.121c4.328-9.387,6.42-14.797,6.275-16.24l-0.27-0.598c-0.749-2.283-2.791-3.258-6.122-2.924
		l-0.019-0.203l5.457-1.592c0.854-0.4,1.687-0.947,2.503-1.625l-67.104,9.398
		C4380.364,1095.236,4379.026,1098.279,4377.629,1101.455z"/>
	<path fill="#FFFFFF" d="M4378.592,1101.564l-0.229-0.186l-0.735,0.076c-2.378,5.408-4.924,11.205-7.649,17.42l0.206-0.021
		l0.228,0.186l0.357-0.037c0.73-1.043,3.402-6.863,8.027-17.455L4378.592,1101.564z"/>
	<path fill="#FFFFFF" d="M4463.595,1109.664l13.604-30.713l-19.825,2.777c-7.843,17.951-12.092,27.904-12.734,29.844
		L4463.595,1109.664z"/>
	<path fill="#FFFFFF" d="M4470.579,1108.755l0.229,0.182l76.904-7.736c-0.028-0.285,2.503-6.168,7.581-17.619l-57.731,5.809
		c0.866-2.758,2.393-6.24,4.568-10.451l11.538-1.16c0.437-0.176,2.85-1.834,7.213-4.947l-36.892,5.168l-13.616,30.777
		L4470.579,1108.755z"/>
	<path fill="#FFFFFF" d="M4556.079,1083.503l0.227,0.186l0.207-0.021c-4.624,10.594-7.299,16.414-8.025,17.457l17.978-1.809
		c0.385-0.346,5.678-12.049,15.868-35.094l-19.635,2.75c-2.883,6.439-5.354,11.986-7.403,16.607L4556.079,1083.503z"/>
	<path fill="#FFFFFF" d="M4596.32,1096.107l0.021,0.203l19.16-1.928c1.895-3.715,7.386-16.104,16.45-37.109l-19.75,2.766
		L4596.32,1096.107z"/>
	<path fill="#FFFFFF" d="M4556.305,1083.689l-0.227-0.186l-0.785,0.078c-5.078,11.451-7.609,17.334-7.581,17.619l0.773-0.076
		c0.728-1.043,3.401-6.863,8.025-17.457L4556.305,1083.689z"/>
	<path fill="#FFFFFF" d="M4627.087,1083.853c0.314,1.771,0.633,2.852,0.952,3.232c1.794,3.705,5.624,5.264,11.498,4.672l8.653-0.869
		l2.289-0.023l2.656-0.475l36.264-3.646c0.362-0.211,3.023-6.166,7.985-17.871l-0.208,0.021l-0.229-0.188l-38.321,3.857
		l-2.451,0.453l-0.64-0.143c-2.404,0.24-3.902-0.857-4.495-3.297c-0.211-2.092,1.481-6.635,5.082-13.621
		c0.292-0.756,0.589-1.486,0.889-2.195l-19.707,2.762l-3.635,7.936C4628.915,1073.748,4626.719,1080.212,4627.087,1083.853z"/>
	<path fill="#FFFFFF" d="M4696.971,1085.982l0.207-0.021l0.228,0.184l77.678-7.813c0.728-1.043,3.405-6.863,8.027-17.457
		l-0.205,0.021l-0.229-0.188l-58.517,5.887c0.867-2.76,2.391-6.242,4.565-10.449l11.54-1.16c0.802-0.322,8.179-5.574,22.143-15.758
		l-0.022-0.227l-47.574,6.666L4696.971,1085.982z"/>
</g>
<g>
	<g>
		
			<linearGradient id="SVGID_1_" gradientUnits="userSpaceOnUse" x1="4038.6125" y1="141.3755" x2="4173.2607" y2="141.3755" gradientTransform="matrix(1 0 0 -1 -8.3599 1386.1904)">
			<stop  offset="0" style="stop-color:#64FF00"/>
			<stop  offset="1" style="stop-color:#3EB500"/>
		</linearGradient>
		<path fill="url(#SVGID_1_)" d="M4030.253,1300.607l7.524-98.998l18.315-1.813l41.295,55.307l49.377-64.283l18.137-1.797
			l-7.522,98.998l-20.989,2.076l4.646-61.164c0.091-1.184,0.28-2.686,0.57-4.514c0.292-1.826,0.646-3.875,1.063-6.146
			c-1.423,2.684-2.655,4.895-3.705,6.641c-1.042,1.748-1.977,3.188-2.792,4.32l-40.305,53.068l-4.51,0.445l-32.863-46.01
			c-1.208-1.742-2.227-3.393-3.048-4.951c-0.828-1.559-1.487-3.09-1.982-4.59c0.026,2.043,0.021,3.902-0.016,5.576
			c-0.033,1.682-0.113,3.299-0.231,4.857l-4.646,61.158L4030.253,1300.607z"/>
		<g>
			<path d="M4029.953,1300.583c0.308-8.273,0.663-16.545,1.073-24.813c0.396-8.266,0.833-16.529,1.299-24.793
				c0.434-8.264,0.962-16.521,1.452-24.781c0.477-8.262,1.052-16.516,1.585-24.771l0.129-2.002l2.046-0.225
				c6.099-0.666,12.197-1.344,18.301-1.963l1.437-0.146l0.88,1.168l10.391,13.775c3.473,4.586,6.924,9.188,10.345,13.813
				c3.424,4.621,6.886,9.215,10.262,13.873c3.382,4.652,6.815,9.268,10.154,13.951l-3.815-0.023l25.297-31.676l12.657-15.832
				l12.543-15.918l0.268-0.34l0.414-0.039l18.143-1.723l1.075-0.104l-0.08,1.074l-0.917,12.377l-0.889,12.379l-0.831,12.383
				l-0.771,12.389l-2.929,49.563l-0.102,1.725l-1.783,0.203l-20.956,2.406l-2.85,0.326l0.189-2.926l1.167-17.996l1.223-17.992
				l1.243-17.988l0.312-4.498l0.155-2.248l0.02-0.281l0.035-0.402l0.066-0.559l0.135-1.119l0.268-2.238l0.091-0.715l0.093-0.555
				l0.184-1.111l0.738-4.449l5.635,1.924l-2.439,4.441l-1.221,2.223l-0.077,0.139l-0.146,0.234l-0.167,0.262l-0.333,0.521
				l-0.667,1.047l-1.333,2.094l-0.167,0.262l-0.214,0.299l-0.094,0.125l-0.372,0.496l-0.743,0.992l-2.975,3.973
				c-3.951,5.307-7.975,10.559-11.964,15.834l-11.995,15.814l-12.091,15.736l-0.834,1.088l-1.33,0.123l-4.511,0.422l-1.791,0.168
				l-1.015-1.441l-9.7-13.768l-9.647-13.803l-9.635-13.814l-2.397-3.461l-0.6-0.865l-0.3-0.432l-0.208-0.303l-0.141-0.223
				l-1.13-1.775c-0.378-0.561-0.748-1.277-1.118-1.928l-0.554-0.998l-0.178-0.328l-0.111-0.238l-0.222-0.479
				c-0.292-0.658-0.599-1.225-0.878-1.959l-0.819-2.225l4.611-0.771l-0.077,4.553l-0.022,1.193l-0.069,1.119l-0.143,2.238
				l-0.076,1.119l-0.047,0.621l-0.055,0.559l-0.214,2.234l-0.429,4.465l-1.713,17.867L4051.27,1281l-1.844,17.855l-0.075,0.736
				l-0.694,0.053c-6.121,0.453-12.246,0.871-18.373,1.262l-0.342,0.021L4029.953,1300.583z M4030.592,1300.259
				c5.962-0.803,11.927-1.58,17.895-2.322l-0.771,0.787l0.875-17.928l1.002-17.92l1.005-17.92l0.252-4.479l0.126-2.24l0.03-0.561
				l0.019-0.498l0.03-1.121l0.07-2.242l0.038-1.119l-0.014-1.049l-0.051-4.422l-0.146-12.729l4.758,11.959l0.681,1.709
				c0.227,0.574,0.603,1.24,0.896,1.857l0.235,0.471l0.118,0.234c0.011,0.021-0.071-0.143-0.033-0.066l0.008,0.014l0.015,0.025
				l0.031,0.053l0.063,0.104l0.492,0.828c0.342,0.561,0.615,1.094,1.04,1.688l1.181,1.744l0.146,0.217l0.02,0.027
				c-0.114-0.166-0.026-0.037-0.05-0.072l0.011,0.014l0.039,0.053l0.078,0.107l0.312,0.424l0.624,0.848l2.496,3.391l9.942,13.596
				l9.929,13.604l9.877,13.641l-2.805-1.273l4.507-0.471l-2.163,1.211l11.916-15.873l12.013-15.799
				c4.013-5.258,7.992-10.545,12.043-15.773l3.028-3.932l0.757-0.982l0.378-0.49l0.095-0.123l0.047-0.063l0.023-0.029
				c0.031-0.043-0.227,0.316-0.112,0.156l0.011-0.016l0.17-0.26l1.361-2.074l0.68-1.037l0.341-0.52l0.17-0.26l0.042-0.064
				l0.021-0.031l0.011-0.016c0.063-0.1-0.071,0.113-0.055,0.086l0.075-0.133l1.196-2.111l2.396-4.225l8.758-15.445l-3.123,17.367
				l-0.798,4.438l-0.199,1.109l-0.1,0.555l-0.006,0.035c-0.006,0.039,0.041-0.283,0.02-0.139l-0.002,0.018l-0.01,0.07l-0.019,0.139
				l-0.037,0.279l-0.298,2.234l-0.149,1.117l-0.075,0.559l-0.009,0.07c-0.011,0.113,0.013-0.137,0.01-0.104l-0.001,0.018
				l-0.003,0.035l-0.012,0.141l-0.023,0.279l-0.186,2.248l-0.372,4.492l-1.488,17.971l-1.51,17.971l-1.564,17.965l-2.658-2.6
				l21.021-1.748l-1.885,1.928l4.595-49.436l1.11-12.361l1.049-12.367l0.992-12.369l0.963-12.373l0.995,0.971l-18.128,1.871
				l0.682-0.379l-12.145,16.225l-12.032,16.311l-24.08,32.609l-1.844,2.498l-1.973-2.523c-3.543-4.533-6.991-9.137-10.492-13.701
				c-3.507-4.561-6.928-9.186-10.387-13.779c-3.462-4.594-6.892-9.211-10.303-13.842l-10.257-13.877l2.315,1.021
				c-6.107,0.59-12.221,1.117-18.331,1.66l2.176-2.227c-0.721,8.244-1.4,16.488-2.177,24.727c-0.766,8.24-1.49,16.482-2.311,24.719
				c-0.788,8.236-1.604,16.473-2.463,24.705C4032.409,1284.05,4031.523,1292.158,4030.592,1300.259z"/>
		</g>
	</g>
	<g>
		
			<linearGradient id="SVGID_2_" gradientUnits="userSpaceOnUse" x1="4213.3252" y1="177.5923" x2="4320.4521" y2="177.5923" gradientTransform="matrix(1 0 0 -1 -8.3599 1386.1904)">
			<stop  offset="0" style="stop-color:#64FF00"/>
			<stop  offset="1" style="stop-color:#3EB500"/>
		</linearGradient>
		<path fill="url(#SVGID_2_)" d="M4204.966,1283.308l7.526-98.998l99.6-9.857l-1.283,16.854l-76.955,7.619l-1.679,22.104
			l44.921-4.445l-1.283,16.859l-44.921,4.447l-1.862,24.537l77.874-7.711l-1.416,18.639L4204.966,1283.308z M4250.107,1170.175
			l21.242-34.266l20.437-2.021l-29.618,35.094L4250.107,1170.175z"/>
		<g>
			<path d="M4204.654,1283.626l0.466-12.754l0.544-12.404l0.604-12.4l0.651-12.395l1.444-24.783l1.597-24.771l0.136-2.109
				l2.146-0.225l24.887-2.6c4.146-0.445,8.298-0.84,12.449-1.24c4.151-0.395,8.3-0.818,12.455-1.186l12.464-1.09
				c4.154-0.361,8.315-0.658,12.474-0.992l24.952-1.938l2.082-0.162l-0.196,2.006l-1.647,16.826l-0.113,1.156l-1.104,0.09
				c-3.213,0.256-6.43,0.475-9.639,0.764l-9.632,0.826c-6.423,0.531-12.833,1.191-19.251,1.781
				c-3.209,0.291-6.413,0.633-9.619,0.959l-9.616,0.982l-19.221,2.086l1.02-1.043l-1.294,22.133l-1.665-1.629l44.836-5.293
				l2.768-0.326l-0.167,2.867c-0.329,5.627-0.685,11.252-1.06,16.875l-0.144,2.152l-2.189,0.234l-44.886,4.818l2.668-2.729
				l-1.678,24.551l-3.457-3.377c6.483-0.705,12.977-1.314,19.464-1.975c6.491-0.635,12.976-1.33,19.472-1.91
				c12.988-1.184,25.969-2.459,38.966-3.566l3.466-0.295l-0.297,3.393l-1.63,18.623l-0.199,2.277l-2.207,0.184l-25.169,2.098
				l-25.18,1.988c-8.398,0.615-16.792,1.275-25.196,1.83l-12.604,0.865c-4.199,0.301-8.404,0.545-12.607,0.807L4204.654,1283.626z
				 M4205.308,1282.958c4.049-0.551,8.098-1.119,12.15-1.633l12.528-1.623c8.35-1.104,16.709-2.104,25.064-3.146l25.081-2.988
				l25.091-2.879l-2.405,2.461l1.202-18.652l3.168,3.096c-12.961,1.465-25.938,2.76-38.908,4.146
				c-6.483,0.707-12.979,1.295-19.468,1.945c-6.49,0.623-12.978,1.301-19.473,1.881l-3.767,0.336l0.31-3.715l2.049-24.521
				l0.209-2.508l2.458-0.225l44.958-4.076l-2.333,2.387c0.48-5.615,0.979-11.229,1.506-16.84l2.601,2.541l-45.004,3.596
				l-1.832,0.146l0.166-1.773l2.063-22.074l0.089-0.961l0.931-0.082l19.257-1.725l9.623-0.92c3.207-0.311,6.416-0.605,9.62-0.947
				c6.409-0.682,12.823-1.291,19.227-2.029l9.607-1.078c3.204-0.346,6.399-0.762,9.601-1.141l-1.217,1.246l0.917-16.883l1.886,1.844
				l-24.848,2.99c-4.144,0.488-8.281,1.014-12.426,1.475l-12.437,1.375c-4.146,0.455-8.297,0.85-12.445,1.279
				c-4.148,0.42-8.297,0.85-12.45,1.225l-24.914,2.33l2.281-2.334l-2.166,24.727l-2.319,24.717l-1.23,12.354l-1.277,12.35
				l-1.337,12.346L4205.308,1282.958z"/>
			<path d="M4249.853,1170.017c0.542-1.641,1.172-3.227,1.839-4.789c0.648-1.574,1.365-3.105,2.096-4.631
				c1.469-3.041,3.05-6.014,4.723-8.93c0.839-1.457,1.686-2.908,2.579-4.33c0.9-1.418,1.851-2.807,2.856-4.158
				c2.01-2.707,4.256-5.268,6.307-7.947l0.467-0.611l0.503,0.006c3.443,0.041,6.856-0.225,10.251-0.672
				c1.697-0.225,3.391-0.5,5.077-0.824c1.689-0.307,3.372-0.68,5.058-1.027l4.136-0.852l-2.586,3.797
				c-1.083,1.59-2.129,3.211-3.253,4.766c-1.093,1.582-2.261,3.102-3.427,4.619c-2.34,3.033-4.647,6.094-7.06,9.064
				c-1.207,1.484-2.438,2.949-3.703,4.385c-1.259,1.441-2.559,2.85-3.859,4.254c-1.313,1.396-2.634,2.785-3.983,4.148
				c-1.372,1.348-2.695,2.732-4.105,4.047l-0.796,0.742l-0.598-0.01c-1.017-0.014-2.031-0.012-3.048-0.039l-3.055-0.102
				c-2.041-0.111-4.08-0.209-6.134-0.449l-0.419-0.051L4249.853,1170.017z M4251.023,1169.615c1.658-0.502,3.315-0.953,4.981-1.381
				l2.975-0.699c0.993-0.227,1.988-0.424,2.981-0.637l-1.394,0.732c1.059-1.609,2.203-3.148,3.3-4.727
				c1.118-1.561,2.265-3.098,3.42-4.625c1.168-1.52,2.336-3.035,3.546-4.52c1.204-1.488,2.438-2.947,3.701-4.387
				c2.523-2.877,5.152-5.666,7.749-8.482c1.302-1.404,2.603-2.811,3.979-4.152c1.344-1.369,2.767-2.674,4.151-4.008l1.549,2.945
				c-1.721-0.012-3.444-0.047-5.161-0.018c-1.718,0.012-3.432,0.074-5.141,0.188c-3.417,0.227-6.816,0.633-10.186,1.35l0.97-0.605
				c-1.489,3.029-2.783,6.18-4.313,9.186c-0.764,1.502-1.584,2.971-2.454,4.406c-0.875,1.436-1.8,2.838-2.73,4.236
				c-1.868,2.795-3.827,5.533-5.898,8.201c-1.041,1.332-2.094,2.656-3.215,3.938
				C4252.939,1167.605,4251.994,1168.613,4251.023,1169.615z"/>
		</g>
	</g>
	<g>
		
			<linearGradient id="SVGID_3_" gradientUnits="userSpaceOnUse" x1="4340.8193" y1="170.7397" x2="4466.7451" y2="170.7397" gradientTransform="matrix(1 0 0 -1 -8.3599 1386.1904)">
			<stop  offset="0" style="stop-color:#64FF00"/>
			<stop  offset="1" style="stop-color:#3EB500"/>
		</linearGradient>
		<path fill="url(#SVGID_3_)" d="M4332.46,1270.685l49.982-55.42l-43.286-43.494l30.006-2.969l28.56,30.541l32.104-36.547
			l26.049-2.58l-45.896,49.717l48.406,48.287l-30.748,3.043l-32.703-34.873l-35.78,41.654L4332.46,1270.685z"/>
		<g>
			<path d="M4331.794,1271.025l6.38-7.746l5.988-7.162l6.021-7.131l6.06-7.1c4.033-4.734,8.1-9.443,12.183-14.137
				c4.067-4.707,8.15-9.396,12.269-14.061l0.079,3.236l-10.956-10.738l-10.888-10.811c-3.624-3.607-7.273-7.189-10.856-10.838
				c-3.586-3.646-7.223-7.24-10.767-10.928l-3.831-3.986l5.424-0.451c5.01-0.416,10.012-0.896,15.026-1.25l15.038-1.135l1.044-0.078
				l0.633,0.709l13.916,15.611l6.955,7.809c2.309,2.613,4.67,5.174,7.007,7.76l-1.614,0.023c2.722-3.004,5.446-6.006,8.126-9.049
				l8.066-9.102l7.993-9.166c2.675-3.047,5.299-6.137,7.945-9.207l0.266-0.309l0.423-0.045c8.678-0.924,17.335-2.027,26.004-3.033
				l3.889-0.451l-2.63,2.979l-22.407,25.355l-11.264,12.623l-11.331,12.563l-0.078-3.777l24.405,23.939l12.203,11.971
				c4.077,3.979,8.087,8.027,12.135,12.039l4.817,4.773l-6.764,0.678l-7.688,0.77l-7.688,0.752l-15.385,1.416l-1.54,0.141
				l-1.021-1.104l-8.116-8.773l-8.07-8.814c-5.372-5.887-10.769-11.75-16.104-17.672l3.761-0.082l-9.129,10.256l-9.172,10.221
				l-9.198,10.195l-9.241,10.156l-0.367,0.404l-0.466,0.029l-13.393,0.873c-4.463,0.305-8.93,0.563-13.396,0.813L4331.794,1271.025z
				 M4333.293,1270.269c4.143-0.59,8.287-1.172,12.435-1.711l13.305-1.77l-0.833,0.434l8.648-10.668l8.691-10.633l8.719-10.605
				l8.762-10.572l1.765-2.129l1.997,2.047c5.565,5.703,11.07,11.465,16.601,17.203l8.28,8.621l8.234,8.66l-2.562-0.963l15.363-1.627
				l7.687-0.77l7.688-0.752l-1.945,5.451c-4.021-4.037-8.079-8.037-12.069-12.104l-12-12.174l-24-24.348l-1.86-1.889l1.782-1.889
				l11.616-12.297l11.685-12.236l23.486-24.359l1.259,2.525c-8.697,0.715-17.404,1.33-26.095,2.127l0.688-0.354
				c-2.705,3.02-5.432,6.02-8.106,9.064l-8.06,9.107l-7.984,9.174c-2.672,3.049-5.298,6.139-7.927,9.225l-0.77,0.902l-0.847-0.877
				c-2.423-2.506-4.82-5.033-7.272-7.512l-7.324-7.463l-14.645-14.93l1.678,0.631l-14.97,1.834
				c-4.986,0.637-9.985,1.145-14.979,1.719l1.593-4.439c3.67,3.563,7.249,7.217,10.876,10.82c3.631,3.6,7.195,7.268,10.786,10.908
				l10.756,10.938l10.687,11.01l1.569,1.617l-1.49,1.619c-4.214,4.574-8.461,9.119-12.723,13.65
				c-4.248,4.543-8.513,9.07-12.809,13.57l-6.438,6.758l-6.473,6.725l-6.508,6.693L4333.293,1270.269z"/>
		</g>
	</g>
	<g>
		
			<linearGradient id="SVGID_4_" gradientUnits="userSpaceOnUse" x1="4490.9561" y1="180.9858" x2="4521.124" y2="180.9858" gradientTransform="matrix(1 0 0 -1 -8.3599 1386.1904)">
			<stop  offset="0" style="stop-color:#64FF00"/>
			<stop  offset="1" style="stop-color:#3EB500"/>
		</linearGradient>
		<path fill="url(#SVGID_4_)" d="M4482.596,1255.824l7.521-98.996l22.647-2.242l-7.524,99L4482.596,1255.824z"/>
		<g>
			<path d="M4482.297,1255.8c-0.093-2.082-0.128-4.158-0.156-6.234l-0.02-6.227l0.085-6.215l0.171-6.211
				c0.246-8.277,0.699-16.541,1.287-24.793c0.296-4.127,0.688-8.246,1.176-12.355c0.502-4.111,1.056-8.219,1.634-12.322
				c0.574-4.105,1.128-8.211,1.604-12.324c0.231-2.057,0.445-4.115,0.634-6.174c0.185-2.063,0.366-4.121,0.495-6.188l0.048-0.756
				l0.774-0.084c1.885-0.207,3.771-0.398,5.655-0.617l5.647-0.709c3.761-0.514,7.519-1.061,11.271-1.641l1.85-0.285l-0.05,2.045
				l-0.296,12.424c-0.077,2.068-0.127,4.139-0.227,6.205l-0.295,6.201c-0.437,8.266-0.884,16.527-1.398,24.785l-0.439,6.191
				l-0.502,6.184l-0.561,6.182l-0.609,6.178c-0.451,4.113-0.85,8.232-1.345,12.344c-0.481,4.111-0.965,8.225-1.517,12.332
				l-0.235,1.748l-1.545,0.072c-1.896,0.088-3.793,0.174-5.692,0.23l-5.698,0.184c-1.901,0.037-3.801,0.104-5.705,0.117
				c-1.901,0.033-3.808,0.037-5.713,0.033h-0.314L4482.297,1255.8z M4482.966,1255.447c1.735-0.35,3.471-0.693,5.209-1.01
				c1.87-0.357,3.745-0.664,5.618-1l5.624-0.936c1.874-0.316,3.751-0.604,5.628-0.889l-1.779,1.82
				c0.075-4.143,0.222-8.279,0.365-12.418c0.132-4.139,0.361-8.271,0.537-12.406l0.331-6.197l0.381-6.193l0.438-6.189l0.5-6.186
				c0.74-8.242,1.547-16.479,2.364-24.715l0.646-6.174c0.214-2.057,0.479-4.111,0.715-6.168l1.585-12.326l1.8,1.76
				c-3.796,0.166-7.587,0.367-11.376,0.602l-5.677,0.412c-1.892,0.154-3.778,0.338-5.668,0.504l0.822-0.84
				c-0.186,2.061-0.316,4.125-0.445,6.188c-0.126,2.064-0.227,4.131-0.308,6.199c-0.151,4.137-0.225,8.281-0.276,12.426
				c-0.049,4.145-0.122,8.287-0.247,12.426c-0.139,4.141-0.374,8.271-0.704,12.395c-0.665,8.246-1.466,16.482-2.475,24.703
				l-0.77,6.164l-0.854,6.158l-0.961,6.148C4483.672,1251.623,4483.339,1253.537,4482.966,1255.447z"/>
		</g>
	</g>
	<g>
		
			<linearGradient id="SVGID_5_" gradientUnits="userSpaceOnUse" x1="4562.874" y1="192.0898" x2="4673.5313" y2="192.0898" gradientTransform="matrix(1 0 0 -1 -8.3599 1386.1904)">
			<stop  offset="0" style="stop-color:#64FF00"/>
			<stop  offset="1" style="stop-color:#3EB500"/>
		</linearGradient>
		<path fill="url(#SVGID_5_)" d="M4642.78,1159.279l-61.031,6.045l-4.764,62.654l61.03-6.041l1.617-21.26l22.277,2.533
			l-0.892,11.707c-0.684,9.057-2.825,15.387-6.418,18.998c-3.598,3.607-10.088,5.877-19.475,6.805l-58.086,5.75
			c-9.451,0.938-15.711-0.07-18.773-3.016c-3.063-2.951-4.25-8.953-3.563-18.012l3.963-52.164
			c0.682-8.992,2.809-15.309,6.373-18.945c3.565-3.635,10.072-5.922,19.525-6.857l58.082-5.75
			c9.389-0.934,15.627,0.092,18.729,3.068c3.088,2.984,4.293,8.963,3.611,17.961l-0.715,9.363l-22.916,5.895L4642.78,1159.279z"/>
		<g>
			<path d="M4642.438,1159.628c-4.938,0.713-9.881,1.408-14.825,2.066l-15.211,1.988l-15.221,1.891l-15.229,1.809l1.859-1.902
				c-0.3,5.229-0.597,10.459-0.943,15.684l-1.004,15.678l-2.188,31.344l-2.957-2.893l15.261-1.473
				c2.543-0.258,5.092-0.463,7.637-0.689l7.638-0.664c5.092-0.449,10.192-0.801,15.288-1.207l15.291-1.18l-1.677,1.715l2.095-21.223
				l0.145-1.459l1.396,0.186c3.705,0.496,7.404,1.037,11.113,1.492l11.12,1.42l0.97,0.123l-0.078,0.953l-0.896,10.895
				c-0.298,3.639-0.782,7.348-1.779,10.951c-0.257,0.9-0.507,1.803-0.874,2.674l-0.513,1.318l-0.639,1.275
				c-0.383,0.869-0.979,1.641-1.489,2.453c-0.276,0.393-0.619,0.746-0.928,1.119l-0.476,0.551c-0.042,0.043,0.01,0.004-0.109,0.113
				l-0.063,0.055l-0.129,0.113l-0.257,0.225l-1.03,0.9l-1.229,0.83l-0.618,0.41c-0.209,0.121-0.421,0.223-0.632,0.334l-1.264,0.662
				c-0.854,0.408-1.739,0.729-2.609,1.098l-2.678,0.85c-3.595,1.014-7.305,1.467-10.931,1.904l-10.857,1.273l-21.715,2.563
				l-21.711,2.605c-3.611,0.445-7.396,0.846-11.265,0.68c-1.938-0.086-3.912-0.289-5.927-0.814
				c-2.024-0.574-4.047-1.348-5.966-3.191l-0.475-0.494c-0.198-0.234-0.412-0.504-0.611-0.762c-0.223-0.271-0.334-0.486-0.503-0.734
				c-0.161-0.24-0.309-0.484-0.434-0.732c-0.556-0.98-0.932-1.988-1.259-2.988c-0.618-2.004-0.927-3.988-1.096-5.938
				c-0.34-3.875-0.033-7.758,0.217-11.326l1.485-21.813l1.484-21.813c0.477-7.043,0.684-15.139,4.731-22.582l0.879-1.357
				l0.446-0.678l0.534-0.639l0.542-0.637l0.272-0.316l0.137-0.156c0.098-0.096-0.118,0.104,0.233-0.234l0.063-0.057l1.024-0.904
				c0.284-0.283,0.801-0.641,1.287-0.975c0.48-0.326,0.982-0.682,1.461-0.963c0.928-0.461,1.849-1.021,2.793-1.381
				c3.765-1.602,7.589-2.395,11.368-2.936l2.831-0.326c0.945-0.109,1.824-0.176,2.74-0.266l5.442-0.504l10.885-1.006
				c7.254-0.689,14.52-1.281,21.778-1.926l10.891-0.947l5.446-0.455c1.795-0.152,3.679-0.299,5.603-0.346
				c3.789-0.07,7.69,0.059,11.666,1.4c0.986,0.371,1.979,0.789,2.926,1.406c0.468,0.313,0.94,0.627,1.37,1.027l0.324,0.291
				l0.081,0.074c0.013,0.008,0.204,0.205,0.149,0.15l0.113,0.127c0.159,0.184,0.288,0.309,0.474,0.539l0.567,0.75
				c0.169,0.244,0.299,0.473,0.447,0.713c0.285,0.473,0.521,0.961,0.738,1.447c0.438,0.977,0.728,1.965,0.979,2.947
				c0.905,3.938,0.847,7.76,0.599,11.498c-0.314,3.717-0.713,7.277-1.074,10.924l-0.119,1.199l-1.097,0.252l-11.534,2.65
				l-11.551,2.588l-1.32,0.295l0.14-1.285l1.004-9.346L4642.438,1159.628z M4643.092,1158.96l-0.371,9.734l-0.418,9.391l-1.182-0.99
				l11.364-3.307l11.383-3.244l-1.217,1.449c0.216-7.26,1.38-14.705-0.37-21.104c-0.236-0.771-0.493-1.527-0.833-2.203
				c-0.169-0.336-0.346-0.664-0.544-0.961c-0.102-0.143-0.201-0.307-0.297-0.434c-0.094-0.107-0.183-0.219-0.268-0.332
				c-0.1-0.125-0.302-0.314-0.447-0.469l-0.119-0.123c-0.095-0.098,0.061,0.061,0.027,0.031l-0.049-0.037l-0.19-0.156
				c-0.24-0.219-0.543-0.396-0.834-0.58c-0.593-0.365-1.302-0.635-2.023-0.883c-2.985-0.916-6.504-0.998-9.967-0.799
				c-3.408,0.207-7.13,0.754-10.727,1.127l-10.864,1.207c-7.245,0.791-14.483,1.637-21.732,2.383l-10.871,1.145
				c-3.588,0.396-7.344,0.73-10.727,1.201c-3.417,0.539-6.772,1.307-9.729,2.543c-0.766,0.281-1.397,0.699-2.108,1.031
				c-0.305,0.18-0.541,0.363-0.82,0.535c-0.271,0.172-0.532,0.297-0.901,0.654l-1.025,0.902l-0.063,0.057
				c0.313-0.295,0.063-0.053,0.122-0.105l-0.085,0.104l-0.17,0.205l-0.346,0.402l-0.351,0.402l-0.3,0.469l-0.612,0.93
				c-1.489,2.656-2.4,5.949-2.958,9.262c-0.572,3.244-0.792,6.994-1.108,10.607l-1.827,21.785l-1.827,21.787l-0.229,2.725
				c-0.064,0.896-0.145,1.756-0.178,2.629c-0.087,1.738-0.094,3.467,0.008,5.15c0.228,3.35,0.881,6.631,2.758,8.545l0.271,0.242
				c0.104,0.109,0.247,0.195,0.376,0.293c0.247,0.201,0.562,0.359,0.856,0.535c0.622,0.326,1.332,0.59,2.073,0.82
				c1.5,0.445,3.164,0.688,4.859,0.816c3.415,0.266,6.92,0.018,10.55-0.297l21.801-1.699l21.796-1.744l10.897-0.881
				c3.617-0.301,7.17-0.707,10.626-1.592l2.548-0.75c0.813-0.328,1.652-0.609,2.447-0.971c0.755-0.408,1.614-0.734,2.269-1.229
				l1.048-0.68l1.035-0.891l0.259-0.225l0.129-0.109l0.064-0.059c-0.075,0.072,0.009-0.014,0.006-0.014l0.417-0.482
				c0.271-0.328,0.574-0.627,0.824-0.975c0.456-0.732,0.999-1.402,1.354-2.205l0.596-1.164l0.483-1.227
				c0.35-0.807,0.591-1.66,0.839-2.512c0.992-3.414,1.374-6.979,1.655-10.598l0.762-10.904l0.891,1.076l-11.155-1.113
				c-3.717-0.389-7.443-0.691-11.164-1.041l1.539-1.271l-1.14,21.295l-0.082,1.521l-1.596,0.193l-15.225,1.842
				c-5.076,0.602-10.146,1.256-15.228,1.814l-7.62,0.846c-2.541,0.277-5.079,0.576-7.622,0.822l-15.255,1.547l-3.223,0.326
				l0.266-3.217l2.575-31.314l1.378-15.648c0.445-5.219,0.942-10.434,1.438-15.646l0.167-1.77l1.693-0.135l15.287-1.213
				l15.296-1.133l15.305-1.033c5.104-0.332,10.21-0.629,15.318-0.902L4643.092,1158.96z"/>
		</g>
	</g>
	<g>
		
			<linearGradient id="SVGID_6_" gradientUnits="userSpaceOnUse" x1="4713.8389" y1="207.7046" x2="4838.0322" y2="207.7046" gradientTransform="matrix(1 0 0 -1 -8.3599 1386.1904)">
			<stop  offset="0" style="stop-color:#64FF00"/>
			<stop  offset="1" style="stop-color:#3EB500"/>
		</linearGradient>
		<path fill="url(#SVGID_6_)" d="M4709.633,1158.333c0.685-8.996,2.81-15.305,6.375-18.945c3.563-3.641,10.068-5.922,19.521-6.857
			l71.621-7.088c9.444-0.938,15.702,0.084,18.768,3.064c3.063,2.982,4.252,8.969,3.568,17.961l-3.966,52.166
			c-0.688,9.059-2.813,15.383-6.377,18.988c-3.561,3.609-10.069,5.879-19.52,6.814l-71.619,7.092
			c-9.447,0.932-15.705-0.074-18.771-3.023c-3.065-2.951-4.252-8.953-3.567-18.008L4709.633,1158.333z M4727.952,1213.033
			l74.653-7.391l4.763-62.656l-74.658,7.393L4727.952,1213.033z"/>
		<g>
			<path d="M4709.335,1158.302c0,0,0.039-0.395,0.113-1.164c0.087-0.77,0.146-1.908,0.399-3.4c0.217-1.49,0.514-3.326,1.09-5.439
				c0.539-2.115,1.374-4.539,2.89-6.984c0.199-0.301,0.361-0.631,0.599-0.916c0.234-0.289,0.472-0.582,0.712-0.879l0.365-0.445
				c0.179-0.217,0.285-0.279,0.433-0.428c0.276-0.256,0.557-0.516,0.839-0.777c0.558-0.531,1.302-0.988,1.979-1.504
				c0.717-0.438,1.462-0.844,2.228-1.268c3.127-1.521,6.732-2.604,10.621-3.367c3.931-0.734,7.995-1.254,12.32-1.91
				c4.323-0.594,8.862-1.281,13.612-1.859c9.486-1.281,19.801-2.316,30.721-3.291c2.732-0.221,5.502-0.443,8.306-0.67
				c2.808-0.195,5.647-0.396,8.521-0.596c0.727-0.049,1.455-0.098,2.185-0.145c0.727-0.037,1.435-0.082,2.209-0.098
				c1.522-0.057,3.021-0.039,4.558,0.027c3.051,0.166,6.213,0.541,9.299,1.857c0.768,0.332,1.52,0.752,2.233,1.252
				c0.351,0.268,0.707,0.52,1.026,0.838l0.245,0.229c0.063,0.061,0.036,0.025,0.168,0.164l0.093,0.105l0.371,0.426
				c1.185,1.463,1.817,2.977,2.301,4.561c0.895,3.156,1.031,6.332,0.974,9.471c-0.026,1.57-0.164,3.137-0.297,4.693
				c-0.129,1.541-0.258,3.088-0.387,4.639c-0.249,3.102-0.54,6.215-0.742,9.348c-0.951,12.539-1.611,25.227-2.163,38.059
				c-0.166,3.121-0.513,6.523-1.257,9.768c-0.759,3.252-1.929,6.58-4.189,9.492l-0.88,1.064c0.065-0.053-0.215,0.223-0.228,0.229
				l-0.108,0.1l-0.22,0.203l-0.438,0.402c-0.502,0.525-1.351,1.105-2.137,1.652c-1.572,1.039-3.094,1.764-4.699,2.41
				c-3.191,1.236-6.438,1.951-9.658,2.51c-3.265,0.486-6.333,0.793-9.43,1.146c-3.092,0.348-6.169,0.693-9.228,1.037
				c-6.117,0.676-12.16,1.344-18.104,2c-5.943,0.674-11.795,1.246-17.521,1.82c-2.863,0.285-5.696,0.566-8.494,0.848
				c-2.803,0.25-5.569,0.496-8.3,0.74c-5.424,0.477-11.044,1.133-16.718,0.082c-1.417-0.262-2.854-0.656-4.272-1.254
				c-0.709-0.303-1.413-0.666-2.099-1.1c-0.343-0.213-0.674-0.475-1.005-0.715c-0.162-0.131-0.318-0.277-0.477-0.416l-0.234-0.213
				l-0.116-0.105c-0.023-0.018-0.242-0.246-0.186-0.189l-0.313-0.348l-0.155-0.174l-0.206-0.26c-0.272-0.357-0.57-0.75-0.746-1.068
				c-0.416-0.672-0.752-1.357-1.023-2.037c-0.549-1.363-0.893-2.711-1.114-4.021c-0.434-2.619-0.492-5.115-0.36-7.502
				c0.113-2.383,0.409-4.691,0.677-6.832c0.536-4.332,1.045-8.439,1.521-12.303c0.486-3.861,0.927-7.475,1.301-10.82
				c0.191-1.672,0.378-3.275,0.555-4.809c0.156-1.535,0.305-2.998,0.446-4.387c0.583-5.553,0.976-9.922,1.222-12.9
				c0.244-2.98,0.375-4.568,0.375-4.568v-0.01H4709.335z M4709.932,1158.355c0,0-0.11,1.592-0.319,4.574
				c-0.208,2.982-0.479,7.359-0.743,12.938c-0.07,1.395-0.145,2.863-0.223,4.402c-0.057,1.543-0.116,3.156-0.179,4.838
				c-0.136,3.363-0.248,7.004-0.353,10.895c-0.111,3.889-0.229,8.027-0.354,12.391c-0.066,2.207-0.135,4.361-0.033,6.559
				c0.104,2.188,0.332,4.393,0.822,6.469c0.25,1.035,0.592,2.02,1.021,2.893c0.21,0.439,0.451,0.844,0.715,1.201
				c0.134,0.213,0.24,0.291,0.339,0.428c0.028,0.037,0.039,0.061,0.08,0.105l0.163,0.166l0.326,0.334
				c0.111,0.111-0.06-0.057-0.021-0.025l0.061,0.047l0.118,0.096l0.235,0.189c0.188,0.111,0.348,0.24,0.545,0.348
				c0.39,0.219,0.816,0.42,1.282,0.592c0.934,0.344,1.985,0.602,3.112,0.754c2.253,0.301,4.709,0.357,7.23,0.227
				c0.635-0.023,1.254-0.076,1.879-0.121c0.618-0.043,1.324-0.125,1.985-0.188c1.332-0.145,2.674-0.289,4.023-0.436
				c2.726-0.299,5.486-0.6,8.282-0.902c2.799-0.275,5.632-0.555,8.496-0.836c5.729-0.561,11.579-1.146,17.538-1.65
				c5.958-0.521,12.015-1.053,18.146-1.59c3.066-0.262,6.151-0.525,9.252-0.791c3.097-0.266,6.257-0.521,9.22-0.85
				c2.979-0.406,5.934-0.979,8.684-1.916c1.354-0.459,2.728-1.057,3.835-1.707c0.526-0.338,1.049-0.57,1.688-1.162l0.781-0.652
				l0.672-0.742c1.796-2.008,3.043-4.748,3.896-7.631c0.86-2.928,1.366-5.865,1.748-9.098c1.384-12.607,2.655-25.363,3.608-37.867
				c0.271-3.127,0.454-6.25,0.678-9.354c0.105-1.553,0.213-3.102,0.319-4.645c0.079-1.531,0.141-3.047,0.104-4.555
				c-0.065-2.996-0.323-6.014-1.294-8.658c-0.464-1.293-1.167-2.559-1.939-3.398l-0.397-0.4l-0.1-0.102
				c0.067,0.07-0.033-0.021-0.041-0.023l-0.181-0.145c-0.226-0.203-0.496-0.365-0.756-0.537c-0.543-0.318-1.125-0.594-1.75-0.809
				c-2.506-0.863-5.359-1.031-8.159-0.969c-1.4,0.041-2.827,0.131-4.205,0.283c-0.677,0.063-1.411,0.162-2.128,0.25
				c-0.71,0.092-1.417,0.184-2.123,0.273c-2.855,0.367-5.681,0.73-8.472,1.086c-2.793,0.328-5.553,0.652-8.275,0.973
				c-10.898,1.184-21.216,2.189-30.771,2.795c-4.771,0.363-9.356,0.578-13.712,0.844c-4.349,0.244-8.534,0.377-12.303,0.73
				c-7.53,0.736-14.272,2.896-17.287,7.625c-0.391,0.555-0.769,1.096-1.046,1.682c-0.289,0.576-0.636,1.104-0.843,1.684
				c-0.233,0.564-0.461,1.113-0.681,1.643c-0.185,0.545-0.334,1.08-0.495,1.592c-0.605,2.057-0.966,3.861-1.172,5.326
				c-0.257,1.457-0.324,2.611-0.415,3.377c-0.079,0.768-0.119,1.164-0.119,1.164v-0.012H4709.932z"/>
			<path d="M4728.313,1212.658c1.41-0.275,2.817-0.574,4.23-0.82c1.544-0.277,3.085-0.574,4.63-0.824
				c3.089-0.535,6.18-1.035,9.275-1.5c3.092-0.496,6.191-0.91,9.289-1.35c3.097-0.455,6.2-0.826,9.303-1.221
				c3.102-0.402,6.205-0.781,9.313-1.113l4.66-0.521c1.554-0.166,3.104-0.359,4.661-0.506c3.11-0.313,6.223-0.602,9.343-0.809
				l4.68-0.332l4.687-0.256l-2.019,2.064l1.005-7.801l1.011-7.801c0.322-2.602,0.649-5.201,0.911-7.809
				c0.291-2.604,0.552-5.209,0.776-7.816c0.225-2.609,0.417-5.223,0.585-7.834c0.191-2.611,0.346-5.227,0.473-7.842
				c0.288-5.229,0.445-10.469,0.604-15.709l1.801,1.76l-9.289,1.361c-3.096,0.469-6.195,0.879-9.295,1.305
				c-6.202,0.811-12.412,1.543-18.622,2.275l-18.636,2.146c-6.216,0.68-12.44,1.252-18.67,1.795l2.821-2.889l-0.738,7.82
				l-0.806,7.816c-0.511,5.213-1.144,10.416-1.723,15.623l-0.964,7.805l-1.025,7.799l-1.104,7.793
				C4729.111,1207.736,4728.725,1210.199,4728.313,1212.658z M4727.653,1213.009c-0.041-2.629-0.049-5.254-0.041-7.881l0.086-7.869
				l0.164-7.865l0.226-7.859c0.214-5.234,0.374-10.475,0.656-15.703l0.384-7.848l0.451-7.844l0.147-2.592l2.673-0.297
				c6.216-0.688,12.433-1.35,18.659-1.902l18.694-1.549c6.232-0.498,12.466-0.998,18.707-1.42c3.122-0.189,6.243-0.395,9.37-0.545
				l9.375-0.484l2.026-0.104l-0.228,1.863c-0.636,5.203-1.271,10.406-1.777,15.619c-0.271,2.605-0.513,5.213-0.718,7.822
				c-0.229,2.607-0.433,5.219-0.605,7.83c-0.173,2.613-0.309,5.23-0.413,7.848c-0.136,2.615-0.205,5.234-0.279,7.855l-0.18,7.863
				l-0.187,7.863l-0.042,1.781l-1.977,0.283l-4.646,0.668l-4.653,0.592c-3.101,0.408-6.21,0.734-9.319,1.039
				c-1.556,0.162-3.114,0.277-4.671,0.418l-4.671,0.402c-3.113,0.285-6.23,0.521-9.352,0.736c-3.119,0.221-6.236,0.465-9.361,0.627
				c-3.124,0.176-6.244,0.379-9.374,0.496c-3.126,0.152-6.256,0.268-9.389,0.35c-1.564,0.057-3.135,0.066-4.702,0.1
				c-1.565,0.037-3.14,0.016-4.709,0.025l-0.323,0.002L4727.653,1213.009z"/>
		</g>
	</g>
</g>
<path d="M4746.11,971.832c0,0,32.248-49.918,40.107-72.486l43.413,62.395L4746.11,971.832z"/>
<path d="M4083.977,963.373c0,0,30.239,50.867,53.742,73.332l-86.452,9.641"/>
<g>
	<path d="M4251.822,943.171l64.123-6.723c9.267-0.971,14.513,1.637,15.731,7.818c0.157,0.846,0.027,2.102-0.389,3.771
		c-1.144,4.563-7.081,13.6-17.821,27.107c-5.593,8.377-12.179,15.949-19.763,22.723c-11.563,9.053-22.497,14.121-32.809,15.199
		l-41.14,4.311l-20.362,26.232l-26.104,2.73l0.075-0.291C4218.343,986.697,4244.499,952.396,4251.822,943.171z M4257.845,966.634
		l-19.08,25.521l27.803-2.914c9.553-1.002,17.133-5.91,22.74-14.715c2.488-3.324,3.854-5.473,4.102-6.455
		c0.879-3.533-2.366-4.916-9.744-4.143L4257.845,966.634z"/>
	<path d="M4417.874,925.769c10.163-1.064,15.91,1.393,17.224,7.373l-0.317,3.477l-0.215,0.883
		c-1.043,4.172-6.673,12.701-16.888,25.58c-30.734,40.65-46.607,61.441-47.619,62.357l-26.103,2.736l18.797-25.492l-40.291,4.225
		c-0.953,0.861-7.405,9.379-19.363,25.551l-0.357,0.324l-26.671,2.793l0.072-0.295c37.74-50.088,58.302-77.102,61.681-81.045
		c9.293-9.002,16.313-14.613,21.058-16.836c6.209-3.658,12.324-6.023,18.35-7.082L4417.874,925.769z M4380.064,930.017l39.438-4.131
		c9.126-0.959,14.203,1.953,15.229,8.73l-0.31,2.326c-1.137,4.563-8.13,14.859-20.969,30.881
		c-13.181,17.73-27.715,36.848-43.606,57.35l-1.208,0.414l-24.118,2.529l-0.42-0.529l18.146-23.99l0.221-0.885l-40.571,4.254
		c-0.894,0.807-7.35,9.322-19.364,25.547l-1.492,0.443l-24.4,2.557l-0.21-0.264l-0.285,0.031
		c37.61-49.934,57.905-76.633,60.895-80.102C4351.817,939.863,4366.16,931.474,4380.064,930.017z M4340.83,982.033l35.75-3.748
		c3.973-0.414,6.128-1.309,6.472-2.684c8.358-9.865,12.779-15.779,13.271-17.738l0.592-2.361c-0.454-2.244-2.906-3.139-7.351-2.67
		l-16.171,1.693C4362.564,955.662,4351.71,964.83,4340.83,982.033z M4341.469,981.677l40.29-4.221
		c9.556-11.709,14.504-18.254,14.848-19.629l0.292-1.18c0.788-3.143-2.038-4.377-8.47-3.699l-13.335,1.396
		c-10.497,1.102-20.033,7.934-28.603,20.494C4343.281,978.861,4341.607,981.138,4341.469,981.677z"/>
	<path d="M4521.715,915.173c12.047-0.307,17.146,3.27,15.281,10.73l-0.292,1.182c-0.982,3.926-5.514,11.002-13.589,21.215
		c-21.367,28.58-33.675,44.689-36.935,48.33c-12.256,12.57-26.371,19.691-42.357,21.365l-64.975,6.809
		c1.009-1.826,13.585-18.633,37.73-50.424l39.596-52.336L4521.715,915.173z M4424.603,996.486l1.419-0.148l29.863-3.412
		c3.879-0.408,9.152-3.83,15.827-10.268c6.672-7.727,15.395-19.063,26.174-34.006l0.945-2.682l0.075-0.293
		c0.209-2.701-1.338-3.877-4.647-3.531l-30.642,3.213C4460.341,949.24,4447.339,966.281,4424.603,996.486z"/>
	<path d="M4665.355,900.123l-0.149,0.588l-44.898,28.227l-54.476,5.709l-11.626,15.563l37.456-3.924l-0.148,0.586
		c-23.526,14.561-35.899,22.074-37.123,22.535l-15.892,1.668c-4.951,6.018-8.684,10.998-11.188,14.939l80.576-8.445l0.211,0.266
		l0.284-0.029c-11.335,15.146-17.738,23.473-19.22,24.961l-106.963,11.209l-0.207-0.264l-0.285,0.031l77.25-102.469
		L4665.355,900.123z"/>
	<path d="M4699.67,897.318l-0.147,0.588l-57.948,76.066l81.146-8.504l-0.145,0.584l-46.607,28.408l-80.296,8.414
		c0.151-0.588,12.584-17.193,37.305-49.805l39.949-52.662l0.357-0.324L4699.67,897.318z"/>
</g>
<g>
	<path fill="#282828" d="M4331.704,944.218c-1.221-6.184-6.466-8.789-15.732-7.818l-64.123,6.723
		c-4.036,5.084-13.806,17.803-29.282,38.117l26.432-2.785l8.874-11.869l25.818-2.705c7.379-0.773,10.623,0.609,9.744,4.143
		c-0.237,0.951-1.538,3.008-3.88,6.156l26.886-2.836c8.875-11.434,13.842-19.227,14.874-23.354
		C4331.731,946.32,4331.861,945.064,4331.704,944.218z"/>
	<path fill="#282828" d="M4351.579,967.638c7.292-8,14.572-12.4,21.842-13.164l1.685-0.176c0.005,0,0.012-0.002,0.018-0.002
		l10.688-1.119l3.783-0.396c2.027-0.213,3.619-0.129,4.817,0.225c2.146,0.508,2.991,1.703,2.517,3.596l-0.293,1.18
		c-0.163,0.652-1.384,2.496-3.636,5.494l26.202-2.764c9.198-11.9,14.295-19.789,15.25-23.617l0.309-2.324
		c-1.024-6.779-6.104-9.689-15.229-8.73l-39.438,4.129c-12.162,1.275-24.658,7.854-37.491,19.73c-0.011,0.01-0.021,0.02-0.03,0.027
		c-1.821,1.689-3.649,3.482-5.484,5.383c-1.869,2.303-5.819,7.4-11.864,15.311L4351.579,967.638z"/>
	<path fill="#282828" d="M4536.73,927.037l0.294-1.184c1.862-7.461-3.234-11.035-15.281-10.729l-65.539,6.871l-28.459,37.615
		l26.924-2.84c4.635-6.043,7.629-9.867,8.977-11.463l30.642-3.211c3.311-0.348,4.856,0.828,4.647,3.529l-0.075,0.295l-0.945,2.68
		c-0.963,1.336-1.904,2.633-2.834,3.91l27.008-2.848c0.353-0.471,0.699-0.936,1.057-1.412
		C4531.219,938.039,4535.749,930.962,4536.73,927.037z"/>
	<polygon fill="#282828" points="4620.335,928.886 4665.232,900.662 4665.383,900.074 4558.985,911.222 4530.686,948.757 
		4557.381,945.945 4565.857,934.595 	"/>
	<polygon fill="#282828" points="4699.549,897.855 4699.696,897.267 4673.309,900.035 4672.952,900.359 4645.412,936.664 
		4672.13,933.845 	"/>
</g>
<path opacity="0.7" fill="#FFFFFF" enable-background="new    " d="M4252.516,949.914l-48.098,63.666
	C4204.418,1013.58,4249.339,968.914,4252.516,949.914z"/>
<path opacity="0.7" fill="#FFFFFF" enable-background="new    " d="M4458.111,925.529l-16.365,23.229c0,0,15.78-16.76,18.53-20.01
	c0,0,21.021-3.639,23.307-6.75L4458.111,925.529z"/>
<path opacity="0.7" fill="#FFFFFF" enable-background="new    " d="M4561.276,913.998l-4.25,5.75c0,0,3-0.686,6.5-4.592
	c0,0,5.846-0.158,6.5-2.658L4561.276,913.998z"/>
<path opacity="0.7" fill="#FFFFFF" enable-background="new    " d="M4344.276,952.998c0,0,15-13.488,29.5-17.619
	C4373.776,935.376,4356.776,944.248,4344.276,952.998z"/>
</svg>
